# xmcd
#
# Track frame offsets:
#	150
#	13201
#	25971
#	38406
#	51544
#	65146
#	77951
#	91364
#	105204
#	120564
#	132609
#	146044
#	161477
#	175626
#	187726
#	200091
#	212926
#	225833
#	240668
#	251771
#	262656
#	273619
#	288114
#
# Disc length: 3985 seconds
#
# Revision: 0
# Processed by: cddbd v1.5.2PL0 Copyright (c) Steve Scherf et al.
# Submitted via: EZCDAudioConverter 2.8.1.1
#
DISCID=460f8f17
DTITLE=Howlin Wolf and Muddy Waters - Big Box Of Howlin' Wolf and Muddy Waters CD 
DTITLE=5
DYEAR=1900
DGENRE=Blues
TTITLE0=Howlin Wolf - I asked for water (She gave me...)
TTITLE1=Howlin Wolf - How many more years
TTITLE2=Muddy Waters - I can't be satisfied
TTITLE3=Howlin Wolf - No place to go
TTITLE4=Howlin Wolf - Everybody's in the mood
TTITLE5=Muddy Waters - Little Geneva
TTITLE6=Howlin Wolf - Morning at midnight
TTITLE7=Howlin Wolf - (Well) That's alright
TTITLE8=Muddy Waters - Honey bee
TTITLE9=Howlin Wolf - Don't mess with my baby
TTITLE10=Howlin Wolf - I'm not joking
TTITLE11=Muddy Waters - Standing around crying
TTITLE12=Howlin Wolf - You can't be beat
TTITLE13=Howlin Wolf - Stay here til my baby comes back
TTITLE14=Muddy Waters - I want to be loved
TTITLE15=Howlin Wolf - Mr. Highway Man
TTITLE16=Howlin Wolf - Forty four
TTITLE17=Muddy Waters - Just to be with you
TTITLE18=Howlin Wolf - Somebody in my home
TTITLE19=Howlin Wolf - Who's been talking
TTITLE20=Muddy Waters - Look what you've done
TTITLE21=Howlin Wolf - (You) Can't put me out
TTITLE22=Howlin Wolf - Wang-dang doodle
EXTD=
EXTT0=
EXTT1=
EXTT2=
EXTT3=
EXTT4=
EXTT5=
EXTT6=
EXTT7=
EXTT8=
EXTT9=
EXTT10=
EXTT11=
EXTT12=
EXTT13=
EXTT14=
EXTT15=
EXTT16=
EXTT17=
EXTT18=
EXTT19=
EXTT20=
EXTT21=
EXTT22=
PLAYORDER=
